<svg xmlns="http://www.w3.org/2000/svg" viewBox="0 0 448 88" role="img">
  <rect width="100%" height="100%" fill="white"/>
  <rect x="32" y="8" width="8" height="8" fill="black"/>
  <rect x="24" y="16" width="8" height="8" fill="black"/>
  <rect x="32" y="16" width="8" height="8" fill="black"/>
  <rect x="32" y="24" width="8" height="8" fill="black"/>
  <rect x="32" y="32" width="8" height="8" fill="black"/>
  <rect x="32" y="40" width="8" height="8" fill="black"/>
  <rect x="32" y="48" width="8" height="8" fill="black"/>
  <rect x="24" y="56" width="8" height="8" fill="black"/>
  <rect x="32" y="56" width="8" height="8" fill="black"/>
  <rect x="40" y="56" width="8" height="8" fill="black"/>
  <rect x="96" y="8" width="8" height="8" fill="black"/>
  <rect x="104" y="8" width="8" height="8" fill="black"/>
  <rect x="112" y="8" width="8" height="8" fill="black"/>
  <rect x="88" y="16" width="8" height="8" fill="black"/>
  <rect x="120" y="16" width="8" height="8" fill="black"/>
  <rect x="88" y="24" width="8" height="8" fill="black"/>
  <rect x="112" y="24" width="8" height="8" fill="black"/>
  <rect x="120" y="24" width="8" height="8" fill="black"/>
  <rect x="88" y="32" width="8" height="8" fill="black"/>
  <rect x="104" y="32" width="8" height="8" fill="black"/>
  <rect x="120" y="32" width="8" height="8" fill="black"/>
  <rect x="88" y="40" width="8" height="8" fill="black"/>
  <rect x="96" y="40" width="8" height="8" fill="black"/>
  <rect x="120" y="40" width="8" height="8" fill="black"/>
  <rect x="88" y="48" width="8" height="8" fill="black"/>
  <rect x="120" y="48" width="8" height="8" fill="black"/>
  <rect x="96" y="56" width="8" height="8" fill="black"/>
  <rect x="104" y="56" width="8" height="8" fill="black"/>
  <rect x="112" y="56" width="8" height="8" fill="black"/>
  <rect x="248" y="8" width="8" height="8" fill="black"/>
  <rect x="256" y="8" width="8" height="8" fill="black"/>
  <rect x="264" y="8" width="8" height="8" fill="black"/>
  <rect x="256" y="16" width="8" height="8" fill="black"/>
  <rect x="256" y="24" width="8" height="8" fill="black"/>
  <rect x="256" y="32" width="8" height="8" fill="black"/>
  <rect x="232" y="40" width="8" height="8" fill="black"/>
  <rect x="256" y="40" width="8" height="8" fill="black"/>
  <rect x="232" y="48" width="8" height="8" fill="black"/>
  <rect x="256" y="48" width="8" height="8" fill="black"/>
  <rect x="240" y="56" width="8" height="8" fill="black"/>
  <rect x="248" y="56" width="8" height="8" fill="black"/>
  <rect x="400" y="8" width="8" height="8" fill="black"/>
  <rect x="392" y="24" width="8" height="8" fill="black"/>
  <rect x="400" y="24" width="8" height="8" fill="black"/>
  <rect x="400" y="32" width="8" height="8" fill="black"/>
  <rect x="400" y="40" width="8" height="8" fill="black"/>
  <rect x="376" y="48" width="8" height="8" fill="black"/>
  <rect x="400" y="48" width="8" height="8" fill="black"/>
  <rect x="384" y="56" width="8" height="8" fill="black"/>
  <rect x="392" y="56" width="8" height="8" fill="black"/>
</svg>
