<svg xmlns="http://www.w3.org/2000/svg" viewBox="0 0 376 88" role="img">
  <rect width="100%" height="100%" fill="white"/>
  <rect x="24" y="8" width="8" height="8" fill="black"/>
  <rect x="32" y="8" width="8" height="8" fill="black"/>
  <rect x="40" y="8" width="8" height="8" fill="black"/>
  <rect x="16" y="16" width="8" height="8" fill="black"/>
  <rect x="48" y="16" width="8" height="8" fill="black"/>
  <rect x="16" y="24" width="8" height="8" fill="black"/>
  <rect x="48" y="24" width="8" height="8" fill="black"/>
  <rect x="24" y="32" width="8" height="8" fill="black"/>
  <rect x="32" y="32" width="8" height="8" fill="black"/>
  <rect x="40" y="32" width="8" height="8" fill="black"/>
  <rect x="48" y="32" width="8" height="8" fill="black"/>
  <rect x="48" y="40" width="8" height="8" fill="black"/>
  <rect x="48" y="48" width="8" height="8" fill="black"/>
  <rect x="24" y="56" width="8" height="8" fill="black"/>
  <rect x="32" y="56" width="8" height="8" fill="black"/>
  <rect x="40" y="56" width="8" height="8" fill="black"/>
  <rect x="160" y="8" width="8" height="8" fill="black"/>
  <rect x="168" y="8" width="8" height="8" fill="black"/>
  <rect x="176" y="8" width="8" height="8" fill="black"/>
  <rect x="184" y="8" width="8" height="8" fill="black"/>
  <rect x="192" y="8" width="8" height="8" fill="black"/>
  <rect x="176" y="16" width="8" height="8" fill="black"/>
  <rect x="176" y="24" width="8" height="8" fill="black"/>
  <rect x="176" y="32" width="8" height="8" fill="black"/>
  <rect x="176" y="40" width="8" height="8" fill="black"/>
  <rect x="176" y="48" width="8" height="8" fill="black"/>
  <rect x="160" y="56" width="8" height="8" fill="black"/>
  <rect x="168" y="56" width="8" height="8" fill="black"/>
  <rect x="176" y="56" width="8" height="8" fill="black"/>
  <rect x="184" y="56" width="8" height="8" fill="black"/>
  <rect x="192" y="56" width="8" height="8" fill="black"/>
  <rect x="320" y="8" width="8" height="8" fill="black"/>
  <rect x="312" y="24" width="8" height="8" fill="black"/>
  <rect x="320" y="24" width="8" height="8" fill="black"/>
  <rect x="320" y="32" width="8" height="8" fill="black"/>
  <rect x="320" y="40" width="8" height="8" fill="black"/>
  <rect x="320" y="48" width="8" height="8" fill="black"/>
  <rect x="312" y="56" width="8" height="8" fill="black"/>
  <rect x="320" y="56" width="8" height="8" fill="black"/>
  <rect x="328" y="56" width="8" height="8" fill="black"/>
</svg>
