<svg xmlns="http://www.w3.org/2000/svg" viewBox="0 0 952 304" role="img">
  <rect width="100%" height="100%" fill="white"/>
  <rect x="24" y="8" width="8" height="8" fill="black"/>
  <rect x="32" y="8" width="8" height="8" fill="black"/>
  <rect x="40" y="8" width="8" height="8" fill="black"/>
  <rect x="16" y="16" width="8" height="8" fill="black"/>
  <rect x="48" y="16" width="8" height="8" fill="black"/>
  <rect x="16" y="24" width="8" height="8" fill="black"/>
  <rect x="48" y="24" width="8" height="8" fill="black"/>
  <rect x="16" y="32" width="8" height="8" fill="black"/>
  <rect x="24" y="32" width="8" height="8" fill="black"/>
  <rect x="32" y="32" width="8" height="8" fill="black"/>
  <rect x="40" y="32" width="8" height="8" fill="black"/>
  <rect x="48" y="32" width="8" height="8" fill="black"/>
  <rect x="16" y="40" width="8" height="8" fill="black"/>
  <rect x="48" y="40" width="8" height="8" fill="black"/>
  <rect x="16" y="48" width="8" height="8" fill="black"/>
  <rect x="48" y="48" width="8" height="8" fill="black"/>
  <rect x="16" y="56" width="8" height="8" fill="black"/>
  <rect x="48" y="56" width="8" height="8" fill="black"/>
  <rect x="96" y="24" width="8" height="8" fill="black"/>
  <rect x="104" y="24" width="8" height="8" fill="black"/>
  <rect x="112" y="24" width="8" height="8" fill="black"/>
  <rect x="120" y="32" width="8" height="8" fill="black"/>
  <rect x="96" y="40" width="8" height="8" fill="black"/>
  <rect x="104" y="40" width="8" height="8" fill="black"/>
  <rect x="112" y="40" width="8" height="8" fill="black"/>
  <rect x="120" y="40" width="8" height="8" fill="black"/>
  <rect x="88" y="48" width="8" height="8" fill="black"/>
  <rect x="120" y="48" width="8" height="8" fill="black"/>
  <rect x="96" y="56" width="8" height="8" fill="black"/>
  <rect x="104" y="56" width="8" height="8" fill="black"/>
  <rect x="112" y="56" width="8" height="8" fill="black"/>
  <rect x="120" y="56" width="8" height="8" fill="black"/>
  <rect x="160" y="8" width="8" height="8" fill="black"/>
  <rect x="168" y="8" width="8" height="8" fill="black"/>
  <rect x="176" y="8" width="8" height="8" fill="black"/>
  <rect x="184" y="8" width="8" height="8" fill="black"/>
  <rect x="160" y="16" width="8" height="8" fill="black"/>
  <rect x="192" y="16" width="8" height="8" fill="black"/>
  <rect x="160" y="24" width="8" height="8" fill="black"/>
  <rect x="192" y="24" width="8" height="8" fill="black"/>
  <rect x="160" y="32" width="8" height="8" fill="black"/>
  <rect x="168" y="32" width="8" height="8" fill="black"/>
  <rect x="176" y="32" width="8" height="8" fill="black"/>
  <rect x="184" y="32" width="8" height="8" fill="black"/>
  <rect x="160" y="40" width="8" height="8" fill="black"/>
  <rect x="192" y="40" width="8" height="8" fill="black"/>
  <rect x="160" y="48" width="8" height="8" fill="black"/>
  <rect x="192" y="48" width="8" height="8" fill="black"/>
  <rect x="160" y="56" width="8" height="8" fill="black"/>
  <rect x="168" y="56" width="8" height="8" fill="black"/>
  <rect x="176" y="56" width="8" height="8" fill="black"/>
  <rect x="184" y="56" width="8" height="8" fill="black"/>
  <rect x="232" y="8" width="8" height="8" fill="black"/>
  <rect x="232" y="16" width="8" height="8" fill="black"/>
  <rect x="232" y="24" width="8" height="8" fill="black"/>
  <rect x="248" y="24" width="8" height="8" fill="black"/>
  <rect x="256" y="24" width="8" height="8" fill="black"/>
  <rect x="232" y="32" width="8" height="8" fill="black"/>
  <rect x="240" y="32" width="8" height="8" fill="black"/>
  <rect x="264" y="32" width="8" height="8" fill="black"/>
  <rect x="232" y="40" width="8" height="8" fill="black"/>
  <rect x="264" y="40" width="8" height="8" fill="black"/>
  <rect x="232" y="48" width="8" height="8" fill="black"/>
  <rect x="264" y="48" width="8" height="8" fill="black"/>
  <rect x="232" y="56" width="8" height="8" fill="black"/>
  <rect x="240" y="56" width="8" height="8" fill="black"/>
  <rect x="248" y="56" width="8" height="8" fill="black"/>
  <rect x="256" y="56" width="8" height="8" fill="black"/>
  <rect x="312" y="8" width="8" height="8" fill="black"/>
  <rect x="320" y="8" width="8" height="8" fill="black"/>
  <rect x="328" y="8" width="8" height="8" fill="black"/>
  <rect x="336" y="8" width="8" height="8" fill="black"/>
  <rect x="304" y="16" width="8" height="8" fill="black"/>
  <rect x="304" y="24" width="8" height="8" fill="black"/>
  <rect x="304" y="32" width="8" height="8" fill="black"/>
  <rect x="304" y="40" width="8" height="8" fill="black"/>
  <rect x="304" y="48" width="8" height="8" fill="black"/>
  <rect x="312" y="56" width="8" height="8" fill="black"/>
  <rect x="320" y="56" width="8" height="8" fill="black"/>
  <rect x="328" y="56" width="8" height="8" fill="black"/>
  <rect x="336" y="56" width="8" height="8" fill="black"/>
  <rect x="384" y="24" width="8" height="8" fill="black"/>
  <rect x="392" y="24" width="8" height="8" fill="black"/>
  <rect x="400" y="24" width="8" height="8" fill="black"/>
  <rect x="408" y="24" width="8" height="8" fill="black"/>
  <rect x="376" y="32" width="8" height="8" fill="black"/>
  <rect x="376" y="40" width="8" height="8" fill="black"/>
  <rect x="376" y="48" width="8" height="8" fill="black"/>
  <rect x="384" y="56" width="8" height="8" fill="black"/>
  <rect x="392" y="56" width="8" height="8" fill="black"/>
  <rect x="400" y="56" width="8" height="8" fill="black"/>
  <rect x="408" y="56" width="8" height="8" fill="black"/>
  <rect x="448" y="8" width="8" height="8" fill="black"/>
  <rect x="456" y="8" width="8" height="8" fill="black"/>
  <rect x="464" y="8" width="8" height="8" fill="black"/>
  <rect x="472" y="8" width="8" height="8" fill="black"/>
  <rect x="448" y="16" width="8" height="8" fill="black"/>
  <rect x="480" y="16" width="8" height="8" fill="black"/>
  <rect x="448" y="24" width="8" height="8" fill="black"/>
  <rect x="480" y="24" width="8" height="8" fill="black"/>
  <rect x="448" y="32" width="8" height="8" fill="black"/>
  <rect x="480" y="32" width="8" height="8" fill="black"/>
  <rect x="448" y="40" width="8" height="8" fill="black"/>
  <rect x="480" y="40" width="8" height="8" fill="black"/>
  <rect x="448" y="48" width="8" height="8" fill="black"/>
  <rect x="480" y="48" width="8" height="8" fill="black"/>
  <rect x="448" y="56" width="8" height="8" fill="black"/>
  <rect x="456" y="56" width="8" height="8" fill="black"/>
  <rect x="464" y="56" width="8" height="8" fill="black"/>
  <rect x="472" y="56" width="8" height="8" fill="black"/>
  <rect x="552" y="8" width="8" height="8" fill="black"/>
  <rect x="552" y="16" width="8" height="8" fill="black"/>
  <rect x="528" y="24" width="8" height="8" fill="black"/>
  <rect x="536" y="24" width="8" height="8" fill="black"/>
  <rect x="552" y="24" width="8" height="8" fill="black"/>
  <rect x="520" y="32" width="8" height="8" fill="black"/>
  <rect x="544" y="32" width="8" height="8" fill="black"/>
  <rect x="552" y="32" width="8" height="8" fill="black"/>
  <rect x="520" y="40" width="8" height="8" fill="black"/>
  <rect x="552" y="40" width="8" height="8" fill="black"/>
  <rect x="520" y="48" width="8" height="8" fill="black"/>
  <rect x="552" y="48" width="8" height="8" fill="black"/>
  <rect x="528" y="56" width="8" height="8" fill="black"/>
  <rect x="536" y="56" width="8" height="8" fill="black"/>
  <rect x="544" y="56" width="8" height="8" fill="black"/>
  <rect x="552" y="56" width="8" height="8" fill="black"/>
  <rect x="592" y="8" width="8" height="8" fill="black"/>
  <rect x="600" y="8" width="8" height="8" fill="black"/>
  <rect x="608" y="8" width="8" height="8" fill="black"/>
  <rect x="616" y="8" width="8" height="8" fill="black"/>
  <rect x="624" y="8" width="8" height="8" fill="black"/>
  <rect x="592" y="16" width="8" height="8" fill="black"/>
  <rect x="592" y="24" width="8" height="8" fill="black"/>
  <rect x="592" y="32" width="8" height="8" fill="black"/>
  <rect x="600" y="32" width="8" height="8" fill="black"/>
  <rect x="608" y="32" width="8" height="8" fill="black"/>
  <rect x="616" y="32" width="8" height="8" fill="black"/>
  <rect x="592" y="40" width="8" height="8" fill="black"/>
  <rect x="592" y="48" width="8" height="8" fill="black"/>
  <rect x="592" y="56" width="8" height="8" fill="black"/>
  <rect x="600" y="56" width="8" height="8" fill="black"/>
  <rect x="608" y="56" width="8" height="8" fill="black"/>
  <rect x="616" y="56" width="8" height="8" fill="black"/>
  <rect x="624" y="56" width="8" height="8" fill="black"/>
  <rect x="672" y="24" width="8" height="8" fill="black"/>
  <rect x="680" y="24" width="8" height="8" fill="black"/>
  <rect x="688" y="24" width="8" height="8" fill="black"/>
  <rect x="664" y="32" width="8" height="8" fill="black"/>
  <rect x="696" y="32" width="8" height="8" fill="black"/>
  <rect x="664" y="40" width="8" height="8" fill="black"/>
  <rect x="672" y="40" width="8" height="8" fill="black"/>
  <rect x="680" y="40" width="8" height="8" fill="black"/>
  <rect x="688" y="40" width="8" height="8" fill="black"/>
  <rect x="696" y="40" width="8" height="8" fill="black"/>
  <rect x="664" y="48" width="8" height="8" fill="black"/>
  <rect x="672" y="56" width="8" height="8" fill="black"/>
  <rect x="680" y="56" width="8" height="8" fill="black"/>
  <rect x="688" y="56" width="8" height="8" fill="black"/>
  <rect x="696" y="56" width="8" height="8" fill="black"/>
  <rect x="736" y="8" width="8" height="8" fill="black"/>
  <rect x="744" y="8" width="8" height="8" fill="black"/>
  <rect x="752" y="8" width="8" height="8" fill="black"/>
  <rect x="760" y="8" width="8" height="8" fill="black"/>
  <rect x="768" y="8" width="8" height="8" fill="black"/>
  <rect x="736" y="16" width="8" height="8" fill="black"/>
  <rect x="736" y="24" width="8" height="8" fill="black"/>
  <rect x="736" y="32" width="8" height="8" fill="black"/>
  <rect x="744" y="32" width="8" height="8" fill="black"/>
  <rect x="752" y="32" width="8" height="8" fill="black"/>
  <rect x="760" y="32" width="8" height="8" fill="black"/>
  <rect x="736" y="40" width="8" height="8" fill="black"/>
  <rect x="736" y="48" width="8" height="8" fill="black"/>
  <rect x="736" y="56" width="8" height="8" fill="black"/>
  <rect x="824" y="8" width="8" height="8" fill="black"/>
  <rect x="832" y="8" width="8" height="8" fill="black"/>
  <rect x="816" y="16" width="8" height="8" fill="black"/>
  <rect x="840" y="16" width="8" height="8" fill="black"/>
  <rect x="816" y="24" width="8" height="8" fill="black"/>
  <rect x="808" y="32" width="8" height="8" fill="black"/>
  <rect x="816" y="32" width="8" height="8" fill="black"/>
  <rect x="824" y="32" width="8" height="8" fill="black"/>
  <rect x="816" y="40" width="8" height="8" fill="black"/>
  <rect x="816" y="48" width="8" height="8" fill="black"/>
  <rect x="816" y="56" width="8" height="8" fill="black"/>
  <rect x="888" y="8" width="8" height="8" fill="black"/>
  <rect x="896" y="8" width="8" height="8" fill="black"/>
  <rect x="904" y="8" width="8" height="8" fill="black"/>
  <rect x="912" y="8" width="8" height="8" fill="black"/>
  <rect x="880" y="16" width="8" height="8" fill="black"/>
  <rect x="880" y="24" width="8" height="8" fill="black"/>
  <rect x="880" y="32" width="8" height="8" fill="black"/>
  <rect x="896" y="32" width="8" height="8" fill="black"/>
  <rect x="904" y="32" width="8" height="8" fill="black"/>
  <rect x="912" y="32" width="8" height="8" fill="black"/>
  <rect x="880" y="40" width="8" height="8" fill="black"/>
  <rect x="912" y="40" width="8" height="8" fill="black"/>
  <rect x="880" y="48" width="8" height="8" fill="black"/>
  <rect x="912" y="48" width="8" height="8" fill="black"/>
  <rect x="888" y="56" width="8" height="8" fill="black"/>
  <rect x="896" y="56" width="8" height="8" fill="black"/>
  <rect x="904" y="56" width="8" height="8" fill="black"/>
  <rect x="912" y="56" width="8" height="8" fill="black"/>
  <rect x="24" y="88" width="8" height="8" fill="black"/>
  <rect x="32" y="88" width="8" height="8" fill="black"/>
  <rect x="40" y="88" width="8" height="8" fill="black"/>
  <rect x="48" y="88" width="8" height="8" fill="black"/>
  <rect x="16" y="96" width="8" height="8" fill="black"/>
  <rect x="48" y="96" width="8" height="8" fill="black"/>
  <rect x="16" y="104" width="8" height="8" fill="black"/>
  <rect x="48" y="104" width="8" height="8" fill="black"/>
  <rect x="24" y="112" width="8" height="8" fill="black"/>
  <rect x="32" y="112" width="8" height="8" fill="black"/>
  <rect x="40" y="112" width="8" height="8" fill="black"/>
  <rect x="48" y="112" width="8" height="8" fill="black"/>
  <rect x="48" y="120" width="8" height="8" fill="black"/>
  <rect x="16" y="128" width="8" height="8" fill="black"/>
  <rect x="24" y="128" width="8" height="8" fill="black"/>
  <rect x="32" y="128" width="8" height="8" fill="black"/>
  <rect x="40" y="128" width="8" height="8" fill="black"/>
  <rect x="88" y="80" width="8" height="8" fill="black"/>
  <rect x="120" y="80" width="8" height="8" fill="black"/>
  <rect x="88" y="88" width="8" height="8" fill="black"/>
  <rect x="120" y="88" width="8" height="8" fill="black"/>
  <rect x="88" y="96" width="8" height="8" fill="black"/>
  <rect x="120" y="96" width="8" height="8" fill="black"/>
  <rect x="88" y="104" width="8" height="8" fill="black"/>
  <rect x="96" y="104" width="8" height="8" fill="black"/>
  <rect x="104" y="104" width="8" height="8" fill="black"/>
  <rect x="112" y="104" width="8" height="8" fill="black"/>
  <rect x="120" y="104" width="8" height="8" fill="black"/>
  <rect x="88" y="112" width="8" height="8" fill="black"/>
  <rect x="120" y="112" width="8" height="8" fill="black"/>
  <rect x="88" y="120" width="8" height="8" fill="black"/>
  <rect x="120" y="120" width="8" height="8" fill="black"/>
  <rect x="88" y="128" width="8" height="8" fill="black"/>
  <rect x="120" y="128" width="8" height="8" fill="black"/>
  <rect x="160" y="80" width="8" height="8" fill="black"/>
  <rect x="160" y="88" width="8" height="8" fill="black"/>
  <rect x="160" y="96" width="8" height="8" fill="black"/>
  <rect x="176" y="96" width="8" height="8" fill="black"/>
  <rect x="184" y="96" width="8" height="8" fill="black"/>
  <rect x="160" y="104" width="8" height="8" fill="black"/>
  <rect x="168" y="104" width="8" height="8" fill="black"/>
  <rect x="192" y="104" width="8" height="8" fill="black"/>
  <rect x="160" y="112" width="8" height="8" fill="black"/>
  <rect x="192" y="112" width="8" height="8" fill="black"/>
  <rect x="160" y="120" width="8" height="8" fill="black"/>
  <rect x="192" y="120" width="8" height="8" fill="black"/>
  <rect x="160" y="128" width="8" height="8" fill="black"/>
  <rect x="192" y="128" width="8" height="8" fill="black"/>
  <rect x="232" y="80" width="8" height="8" fill="black"/>
  <rect x="240" y="80" width="8" height="8" fill="black"/>
  <rect x="248" y="80" width="8" height="8" fill="black"/>
  <rect x="256" y="80" width="8" height="8" fill="black"/>
  <rect x="264" y="80" width="8" height="8" fill="black"/>
  <rect x="248" y="88" width="8" height="8" fill="black"/>
  <rect x="248" y="96" width="8" height="8" fill="black"/>
  <rect x="248" y="104" width="8" height="8" fill="black"/>
  <rect x="248" y="112" width="8" height="8" fill="black"/>
  <rect x="248" y="120" width="8" height="8" fill="black"/>
  <rect x="232" y="128" width="8" height="8" fill="black"/>
  <rect x="240" y="128" width="8" height="8" fill="black"/>
  <rect x="248" y="128" width="8" height="8" fill="black"/>
  <rect x="256" y="128" width="8" height="8" fill="black"/>
  <rect x="264" y="128" width="8" height="8" fill="black"/>
  <rect x="320" y="80" width="8" height="8" fill="black"/>
  <rect x="312" y="96" width="8" height="8" fill="black"/>
  <rect x="320" y="96" width="8" height="8" fill="black"/>
  <rect x="320" y="104" width="8" height="8" fill="black"/>
  <rect x="320" y="112" width="8" height="8" fill="black"/>
  <rect x="320" y="120" width="8" height="8" fill="black"/>
  <rect x="312" y="128" width="8" height="8" fill="black"/>
  <rect x="320" y="128" width="8" height="8" fill="black"/>
  <rect x="328" y="128" width="8" height="8" fill="black"/>
  <rect x="392" y="80" width="8" height="8" fill="black"/>
  <rect x="400" y="80" width="8" height="8" fill="black"/>
  <rect x="408" y="80" width="8" height="8" fill="black"/>
  <rect x="400" y="88" width="8" height="8" fill="black"/>
  <rect x="400" y="96" width="8" height="8" fill="black"/>
  <rect x="400" y="104" width="8" height="8" fill="black"/>
  <rect x="376" y="112" width="8" height="8" fill="black"/>
  <rect x="400" y="112" width="8" height="8" fill="black"/>
  <rect x="376" y="120" width="8" height="8" fill="black"/>
  <rect x="400" y="120" width="8" height="8" fill="black"/>
  <rect x="384" y="128" width="8" height="8" fill="black"/>
  <rect x="392" y="128" width="8" height="8" fill="black"/>
  <rect x="472" y="80" width="8" height="8" fill="black"/>
  <rect x="464" y="96" width="8" height="8" fill="black"/>
  <rect x="472" y="96" width="8" height="8" fill="black"/>
  <rect x="472" y="104" width="8" height="8" fill="black"/>
  <rect x="472" y="112" width="8" height="8" fill="black"/>
  <rect x="448" y="120" width="8" height="8" fill="black"/>
  <rect x="472" y="120" width="8" height="8" fill="black"/>
  <rect x="456" y="128" width="8" height="8" fill="black"/>
  <rect x="464" y="128" width="8" height="8" fill="black"/>
  <rect x="520" y="80" width="8" height="8" fill="black"/>
  <rect x="552" y="80" width="8" height="8" fill="black"/>
  <rect x="520" y="88" width="8" height="8" fill="black"/>
  <rect x="544" y="88" width="8" height="8" fill="black"/>
  <rect x="520" y="96" width="8" height="8" fill="black"/>
  <rect x="536" y="96" width="8" height="8" fill="black"/>
  <rect x="520" y="104" width="8" height="8" fill="black"/>
  <rect x="528" y="104" width="8" height="8" fill="black"/>
  <rect x="520" y="112" width="8" height="8" fill="black"/>
  <rect x="536" y="112" width="8" height="8" fill="black"/>
  <rect x="520" y="120" width="8" height="8" fill="black"/>
  <rect x="544" y="120" width="8" height="8" fill="black"/>
  <rect x="520" y="128" width="8" height="8" fill="black"/>
  <rect x="552" y="128" width="8" height="8" fill="black"/>
  <rect x="592" y="80" width="8" height="8" fill="black"/>
  <rect x="592" y="88" width="8" height="8" fill="black"/>
  <rect x="592" y="96" width="8" height="8" fill="black"/>
  <rect x="616" y="96" width="8" height="8" fill="black"/>
  <rect x="592" y="104" width="8" height="8" fill="black"/>
  <rect x="608" y="104" width="8" height="8" fill="black"/>
  <rect x="592" y="112" width="8" height="8" fill="black"/>
  <rect x="600" y="112" width="8" height="8" fill="black"/>
  <rect x="592" y="120" width="8" height="8" fill="black"/>
  <rect x="608" y="120" width="8" height="8" fill="black"/>
  <rect x="592" y="128" width="8" height="8" fill="black"/>
  <rect x="616" y="128" width="8" height="8" fill="black"/>
  <rect x="664" y="80" width="8" height="8" fill="black"/>
  <rect x="664" y="88" width="8" height="8" fill="black"/>
  <rect x="664" y="96" width="8" height="8" fill="black"/>
  <rect x="664" y="104" width="8" height="8" fill="black"/>
  <rect x="664" y="112" width="8" height="8" fill="black"/>
  <rect x="664" y="120" width="8" height="8" fill="black"/>
  <rect x="664" y="128" width="8" height="8" fill="black"/>
  <rect x="672" y="128" width="8" height="8" fill="black"/>
  <rect x="680" y="128" width="8" height="8" fill="black"/>
  <rect x="688" y="128" width="8" height="8" fill="black"/>
  <rect x="696" y="128" width="8" height="8" fill="black"/>
  <rect x="744" y="80" width="8" height="8" fill="black"/>
  <rect x="752" y="80" width="8" height="8" fill="black"/>
  <rect x="752" y="88" width="8" height="8" fill="black"/>
  <rect x="752" y="96" width="8" height="8" fill="black"/>
  <rect x="752" y="104" width="8" height="8" fill="black"/>
  <rect x="752" y="112" width="8" height="8" fill="black"/>
  <rect x="752" y="120" width="8" height="8" fill="black"/>
  <rect x="744" y="128" width="8" height="8" fill="black"/>
  <rect x="752" y="128" width="8" height="8" fill="black"/>
  <rect x="760" y="128" width="8" height="8" fill="black"/>
  <rect x="808" y="80" width="8" height="8" fill="black"/>
  <rect x="840" y="80" width="8" height="8" fill="black"/>
  <rect x="808" y="88" width="8" height="8" fill="black"/>
  <rect x="816" y="88" width="8" height="8" fill="black"/>
  <rect x="832" y="88" width="8" height="8" fill="black"/>
  <rect x="840" y="88" width="8" height="8" fill="black"/>
  <rect x="808" y="96" width="8" height="8" fill="black"/>
  <rect x="824" y="96" width="8" height="8" fill="black"/>
  <rect x="840" y="96" width="8" height="8" fill="black"/>
  <rect x="808" y="104" width="8" height="8" fill="black"/>
  <rect x="824" y="104" width="8" height="8" fill="black"/>
  <rect x="840" y="104" width="8" height="8" fill="black"/>
  <rect x="808" y="112" width="8" height="8" fill="black"/>
  <rect x="840" y="112" width="8" height="8" fill="black"/>
  <rect x="808" y="120" width="8" height="8" fill="black"/>
  <rect x="840" y="120" width="8" height="8" fill="black"/>
  <rect x="808" y="128" width="8" height="8" fill="black"/>
  <rect x="840" y="128" width="8" height="8" fill="black"/>
  <rect x="880" y="96" width="8" height="8" fill="black"/>
  <rect x="888" y="96" width="8" height="8" fill="black"/>
  <rect x="904" y="96" width="8" height="8" fill="black"/>
  <rect x="880" y="104" width="8" height="8" fill="black"/>
  <rect x="896" y="104" width="8" height="8" fill="black"/>
  <rect x="912" y="104" width="8" height="8" fill="black"/>
  <rect x="880" y="112" width="8" height="8" fill="black"/>
  <rect x="896" y="112" width="8" height="8" fill="black"/>
  <rect x="912" y="112" width="8" height="8" fill="black"/>
  <rect x="880" y="120" width="8" height="8" fill="black"/>
  <rect x="896" y="120" width="8" height="8" fill="black"/>
  <rect x="912" y="120" width="8" height="8" fill="black"/>
  <rect x="880" y="128" width="8" height="8" fill="black"/>
  <rect x="896" y="128" width="8" height="8" fill="black"/>
  <rect x="912" y="128" width="8" height="8" fill="black"/>
  <rect x="16" y="152" width="8" height="8" fill="black"/>
  <rect x="48" y="152" width="8" height="8" fill="black"/>
  <rect x="16" y="160" width="8" height="8" fill="black"/>
  <rect x="24" y="160" width="8" height="8" fill="black"/>
  <rect x="48" y="160" width="8" height="8" fill="black"/>
  <rect x="16" y="168" width="8" height="8" fill="black"/>
  <rect x="32" y="168" width="8" height="8" fill="black"/>
  <rect x="48" y="168" width="8" height="8" fill="black"/>
  <rect x="16" y="176" width="8" height="8" fill="black"/>
  <rect x="40" y="176" width="8" height="8" fill="black"/>
  <rect x="48" y="176" width="8" height="8" fill="black"/>
  <rect x="16" y="184" width="8" height="8" fill="black"/>
  <rect x="48" y="184" width="8" height="8" fill="black"/>
  <rect x="16" y="192" width="8" height="8" fill="black"/>
  <rect x="48" y="192" width="8" height="8" fill="black"/>
  <rect x="16" y="200" width="8" height="8" fill="black"/>
  <rect x="48" y="200" width="8" height="8" fill="black"/>
  <rect x="88" y="168" width="8" height="8" fill="black"/>
  <rect x="104" y="168" width="8" height="8" fill="black"/>
  <rect x="112" y="168" width="8" height="8" fill="black"/>
  <rect x="88" y="176" width="8" height="8" fill="black"/>
  <rect x="96" y="176" width="8" height="8" fill="black"/>
  <rect x="120" y="176" width="8" height="8" fill="black"/>
  <rect x="88" y="184" width="8" height="8" fill="black"/>
  <rect x="120" y="184" width="8" height="8" fill="black"/>
  <rect x="88" y="192" width="8" height="8" fill="black"/>
  <rect x="120" y="192" width="8" height="8" fill="black"/>
  <rect x="88" y="200" width="8" height="8" fill="black"/>
  <rect x="120" y="200" width="8" height="8" fill="black"/>
  <rect x="168" y="152" width="8" height="8" fill="black"/>
  <rect x="176" y="152" width="8" height="8" fill="black"/>
  <rect x="184" y="152" width="8" height="8" fill="black"/>
  <rect x="160" y="160" width="8" height="8" fill="black"/>
  <rect x="192" y="160" width="8" height="8" fill="black"/>
  <rect x="160" y="168" width="8" height="8" fill="black"/>
  <rect x="192" y="168" width="8" height="8" fill="black"/>
  <rect x="160" y="176" width="8" height="8" fill="black"/>
  <rect x="192" y="176" width="8" height="8" fill="black"/>
  <rect x="160" y="184" width="8" height="8" fill="black"/>
  <rect x="192" y="184" width="8" height="8" fill="black"/>
  <rect x="160" y="192" width="8" height="8" fill="black"/>
  <rect x="192" y="192" width="8" height="8" fill="black"/>
  <rect x="168" y="200" width="8" height="8" fill="black"/>
  <rect x="176" y="200" width="8" height="8" fill="black"/>
  <rect x="184" y="200" width="8" height="8" fill="black"/>
  <rect x="240" y="168" width="8" height="8" fill="black"/>
  <rect x="248" y="168" width="8" height="8" fill="black"/>
  <rect x="256" y="168" width="8" height="8" fill="black"/>
  <rect x="232" y="176" width="8" height="8" fill="black"/>
  <rect x="264" y="176" width="8" height="8" fill="black"/>
  <rect x="232" y="184" width="8" height="8" fill="black"/>
  <rect x="264" y="184" width="8" height="8" fill="black"/>
  <rect x="232" y="192" width="8" height="8" fill="black"/>
  <rect x="264" y="192" width="8" height="8" fill="black"/>
  <rect x="240" y="200" width="8" height="8" fill="black"/>
  <rect x="248" y="200" width="8" height="8" fill="black"/>
  <rect x="256" y="200" width="8" height="8" fill="black"/>
  <rect x="304" y="152" width="8" height="8" fill="black"/>
  <rect x="312" y="152" width="8" height="8" fill="black"/>
  <rect x="320" y="152" width="8" height="8" fill="black"/>
  <rect x="328" y="152" width="8" height="8" fill="black"/>
  <rect x="304" y="160" width="8" height="8" fill="black"/>
  <rect x="336" y="160" width="8" height="8" fill="black"/>
  <rect x="304" y="168" width="8" height="8" fill="black"/>
  <rect x="336" y="168" width="8" height="8" fill="black"/>
  <rect x="304" y="176" width="8" height="8" fill="black"/>
  <rect x="312" y="176" width="8" height="8" fill="black"/>
  <rect x="320" y="176" width="8" height="8" fill="black"/>
  <rect x="328" y="176" width="8" height="8" fill="black"/>
  <rect x="304" y="184" width="8" height="8" fill="black"/>
  <rect x="304" y="192" width="8" height="8" fill="black"/>
  <rect x="304" y="200" width="8" height="8" fill="black"/>
  <rect x="376" y="160" width="8" height="8" fill="black"/>
  <rect x="384" y="160" width="8" height="8" fill="black"/>
  <rect x="392" y="160" width="8" height="8" fill="black"/>
  <rect x="400" y="160" width="8" height="8" fill="black"/>
  <rect x="376" y="168" width="8" height="8" fill="black"/>
  <rect x="408" y="168" width="8" height="8" fill="black"/>
  <rect x="376" y="176" width="8" height="8" fill="black"/>
  <rect x="408" y="176" width="8" height="8" fill="black"/>
  <rect x="376" y="184" width="8" height="8" fill="black"/>
  <rect x="384" y="184" width="8" height="8" fill="black"/>
  <rect x="392" y="184" width="8" height="8" fill="black"/>
  <rect x="400" y="184" width="8" height="8" fill="black"/>
  <rect x="376" y="192" width="8" height="8" fill="black"/>
  <rect x="376" y="200" width="8" height="8" fill="black"/>
  <rect x="456" y="152" width="8" height="8" fill="black"/>
  <rect x="464" y="152" width="8" height="8" fill="black"/>
  <rect x="472" y="152" width="8" height="8" fill="black"/>
  <rect x="448" y="160" width="8" height="8" fill="black"/>
  <rect x="480" y="160" width="8" height="8" fill="black"/>
  <rect x="448" y="168" width="8" height="8" fill="black"/>
  <rect x="480" y="168" width="8" height="8" fill="black"/>
  <rect x="448" y="176" width="8" height="8" fill="black"/>
  <rect x="480" y="176" width="8" height="8" fill="black"/>
  <rect x="448" y="184" width="8" height="8" fill="black"/>
  <rect x="464" y="184" width="8" height="8" fill="black"/>
  <rect x="480" y="184" width="8" height="8" fill="black"/>
  <rect x="448" y="192" width="8" height="8" fill="black"/>
  <rect x="472" y="192" width="8" height="8" fill="black"/>
  <rect x="456" y="200" width="8" height="8" fill="black"/>
  <rect x="464" y="200" width="8" height="8" fill="black"/>
  <rect x="480" y="200" width="8" height="8" fill="black"/>
  <rect x="528" y="160" width="8" height="8" fill="black"/>
  <rect x="536" y="160" width="8" height="8" fill="black"/>
  <rect x="544" y="160" width="8" height="8" fill="black"/>
  <rect x="552" y="160" width="8" height="8" fill="black"/>
  <rect x="520" y="168" width="8" height="8" fill="black"/>
  <rect x="552" y="168" width="8" height="8" fill="black"/>
  <rect x="520" y="176" width="8" height="8" fill="black"/>
  <rect x="552" y="176" width="8" height="8" fill="black"/>
  <rect x="528" y="184" width="8" height="8" fill="black"/>
  <rect x="536" y="184" width="8" height="8" fill="black"/>
  <rect x="544" y="184" width="8" height="8" fill="black"/>
  <rect x="552" y="184" width="8" height="8" fill="black"/>
  <rect x="552" y="192" width="8" height="8" fill="black"/>
  <rect x="552" y="200" width="8" height="8" fill="black"/>
  <rect x="592" y="152" width="8" height="8" fill="black"/>
  <rect x="600" y="152" width="8" height="8" fill="black"/>
  <rect x="608" y="152" width="8" height="8" fill="black"/>
  <rect x="616" y="152" width="8" height="8" fill="black"/>
  <rect x="592" y="160" width="8" height="8" fill="black"/>
  <rect x="624" y="160" width="8" height="8" fill="black"/>
  <rect x="592" y="168" width="8" height="8" fill="black"/>
  <rect x="624" y="168" width="8" height="8" fill="black"/>
  <rect x="592" y="176" width="8" height="8" fill="black"/>
  <rect x="600" y="176" width="8" height="8" fill="black"/>
  <rect x="608" y="176" width="8" height="8" fill="black"/>
  <rect x="616" y="176" width="8" height="8" fill="black"/>
  <rect x="592" y="184" width="8" height="8" fill="black"/>
  <rect x="608" y="184" width="8" height="8" fill="black"/>
  <rect x="592" y="192" width="8" height="8" fill="black"/>
  <rect x="616" y="192" width="8" height="8" fill="black"/>
  <rect x="592" y="200" width="8" height="8" fill="black"/>
  <rect x="624" y="200" width="8" height="8" fill="black"/>
  <rect x="664" y="168" width="8" height="8" fill="black"/>
  <rect x="680" y="168" width="8" height="8" fill="black"/>
  <rect x="688" y="168" width="8" height="8" fill="black"/>
  <rect x="664" y="176" width="8" height="8" fill="black"/>
  <rect x="672" y="176" width="8" height="8" fill="black"/>
  <rect x="696" y="176" width="8" height="8" fill="black"/>
  <rect x="664" y="184" width="8" height="8" fill="black"/>
  <rect x="664" y="192" width="8" height="8" fill="black"/>
  <rect x="664" y="200" width="8" height="8" fill="black"/>
  <rect x="744" y="152" width="8" height="8" fill="black"/>
  <rect x="752" y="152" width="8" height="8" fill="black"/>
  <rect x="760" y="152" width="8" height="8" fill="black"/>
  <rect x="768" y="152" width="8" height="8" fill="black"/>
  <rect x="736" y="160" width="8" height="8" fill="black"/>
  <rect x="736" y="168" width="8" height="8" fill="black"/>
  <rect x="744" y="176" width="8" height="8" fill="black"/>
  <rect x="752" y="176" width="8" height="8" fill="black"/>
  <rect x="760" y="176" width="8" height="8" fill="black"/>
  <rect x="768" y="184" width="8" height="8" fill="black"/>
  <rect x="768" y="192" width="8" height="8" fill="black"/>
  <rect x="736" y="200" width="8" height="8" fill="black"/>
  <rect x="744" y="200" width="8" height="8" fill="black"/>
  <rect x="752" y="200" width="8" height="8" fill="black"/>
  <rect x="760" y="200" width="8" height="8" fill="black"/>
  <rect x="816" y="168" width="8" height="8" fill="black"/>
  <rect x="824" y="168" width="8" height="8" fill="black"/>
  <rect x="832" y="168" width="8" height="8" fill="black"/>
  <rect x="840" y="168" width="8" height="8" fill="black"/>
  <rect x="808" y="176" width="8" height="8" fill="black"/>
  <rect x="816" y="184" width="8" height="8" fill="black"/>
  <rect x="824" y="184" width="8" height="8" fill="black"/>
  <rect x="832" y="184" width="8" height="8" fill="black"/>
  <rect x="840" y="192" width="8" height="8" fill="black"/>
  <rect x="808" y="200" width="8" height="8" fill="black"/>
  <rect x="816" y="200" width="8" height="8" fill="black"/>
  <rect x="824" y="200" width="8" height="8" fill="black"/>
  <rect x="832" y="200" width="8" height="8" fill="black"/>
  <rect x="880" y="152" width="8" height="8" fill="black"/>
  <rect x="888" y="152" width="8" height="8" fill="black"/>
  <rect x="896" y="152" width="8" height="8" fill="black"/>
  <rect x="904" y="152" width="8" height="8" fill="black"/>
  <rect x="912" y="152" width="8" height="8" fill="black"/>
  <rect x="896" y="160" width="8" height="8" fill="black"/>
  <rect x="896" y="168" width="8" height="8" fill="black"/>
  <rect x="896" y="176" width="8" height="8" fill="black"/>
  <rect x="896" y="184" width="8" height="8" fill="black"/>
  <rect x="896" y="192" width="8" height="8" fill="black"/>
  <rect x="896" y="200" width="8" height="8" fill="black"/>
  <rect x="24" y="224" width="8" height="8" fill="black"/>
  <rect x="24" y="232" width="8" height="8" fill="black"/>
  <rect x="16" y="240" width="8" height="8" fill="black"/>
  <rect x="24" y="240" width="8" height="8" fill="black"/>
  <rect x="32" y="240" width="8" height="8" fill="black"/>
  <rect x="24" y="248" width="8" height="8" fill="black"/>
  <rect x="24" y="256" width="8" height="8" fill="black"/>
  <rect x="24" y="264" width="8" height="8" fill="black"/>
  <rect x="48" y="264" width="8" height="8" fill="black"/>
  <rect x="32" y="272" width="8" height="8" fill="black"/>
  <rect x="40" y="272" width="8" height="8" fill="black"/>
  <rect x="88" y="224" width="8" height="8" fill="black"/>
  <rect x="120" y="224" width="8" height="8" fill="black"/>
  <rect x="88" y="232" width="8" height="8" fill="black"/>
  <rect x="120" y="232" width="8" height="8" fill="black"/>
  <rect x="88" y="240" width="8" height="8" fill="black"/>
  <rect x="120" y="240" width="8" height="8" fill="black"/>
  <rect x="88" y="248" width="8" height="8" fill="black"/>
  <rect x="120" y="248" width="8" height="8" fill="black"/>
  <rect x="88" y="256" width="8" height="8" fill="black"/>
  <rect x="120" y="256" width="8" height="8" fill="black"/>
  <rect x="88" y="264" width="8" height="8" fill="black"/>
  <rect x="120" y="264" width="8" height="8" fill="black"/>
  <rect x="96" y="272" width="8" height="8" fill="black"/>
  <rect x="104" y="272" width="8" height="8" fill="black"/>
  <rect x="112" y="272" width="8" height="8" fill="black"/>
  <rect x="160" y="240" width="8" height="8" fill="black"/>
  <rect x="192" y="240" width="8" height="8" fill="black"/>
  <rect x="160" y="248" width="8" height="8" fill="black"/>
  <rect x="192" y="248" width="8" height="8" fill="black"/>
  <rect x="160" y="256" width="8" height="8" fill="black"/>
  <rect x="192" y="256" width="8" height="8" fill="black"/>
  <rect x="160" y="264" width="8" height="8" fill="black"/>
  <rect x="184" y="264" width="8" height="8" fill="black"/>
  <rect x="192" y="264" width="8" height="8" fill="black"/>
  <rect x="168" y="272" width="8" height="8" fill="black"/>
  <rect x="176" y="272" width="8" height="8" fill="black"/>
  <rect x="192" y="272" width="8" height="8" fill="black"/>
  <rect x="232" y="224" width="8" height="8" fill="black"/>
  <rect x="264" y="224" width="8" height="8" fill="black"/>
  <rect x="232" y="232" width="8" height="8" fill="black"/>
  <rect x="264" y="232" width="8" height="8" fill="black"/>
  <rect x="232" y="240" width="8" height="8" fill="black"/>
  <rect x="264" y="240" width="8" height="8" fill="black"/>
  <rect x="232" y="248" width="8" height="8" fill="black"/>
  <rect x="264" y="248" width="8" height="8" fill="black"/>
  <rect x="232" y="256" width="8" height="8" fill="black"/>
  <rect x="264" y="256" width="8" height="8" fill="black"/>
  <rect x="240" y="264" width="8" height="8" fill="black"/>
  <rect x="256" y="264" width="8" height="8" fill="black"/>
  <rect x="248" y="272" width="8" height="8" fill="black"/>
  <rect x="304" y="240" width="8" height="8" fill="black"/>
  <rect x="336" y="240" width="8" height="8" fill="black"/>
  <rect x="304" y="248" width="8" height="8" fill="black"/>
  <rect x="336" y="248" width="8" height="8" fill="black"/>
  <rect x="304" y="256" width="8" height="8" fill="black"/>
  <rect x="336" y="256" width="8" height="8" fill="black"/>
  <rect x="312" y="264" width="8" height="8" fill="black"/>
  <rect x="328" y="264" width="8" height="8" fill="black"/>
  <rect x="320" y="272" width="8" height="8" fill="black"/>
  <rect x="376" y="224" width="8" height="8" fill="black"/>
  <rect x="408" y="224" width="8" height="8" fill="black"/>
  <rect x="376" y="232" width="8" height="8" fill="black"/>
  <rect x="408" y="232" width="8" height="8" fill="black"/>
  <rect x="376" y="240" width="8" height="8" fill="black"/>
  <rect x="408" y="240" width="8" height="8" fill="black"/>
  <rect x="376" y="248" width="8" height="8" fill="black"/>
  <rect x="392" y="248" width="8" height="8" fill="black"/>
  <rect x="408" y="248" width="8" height="8" fill="black"/>
  <rect x="376" y="256" width="8" height="8" fill="black"/>
  <rect x="392" y="256" width="8" height="8" fill="black"/>
  <rect x="408" y="256" width="8" height="8" fill="black"/>
  <rect x="376" y="264" width="8" height="8" fill="black"/>
  <rect x="392" y="264" width="8" height="8" fill="black"/>
  <rect x="408" y="264" width="8" height="8" fill="black"/>
  <rect x="384" y="272" width="8" height="8" fill="black"/>
  <rect x="400" y="272" width="8" height="8" fill="black"/>
  <rect x="448" y="240" width="8" height="8" fill="black"/>
  <rect x="480" y="240" width="8" height="8" fill="black"/>
  <rect x="448" y="248" width="8" height="8" fill="black"/>
  <rect x="480" y="248" width="8" height="8" fill="black"/>
  <rect x="448" y="256" width="8" height="8" fill="black"/>
  <rect x="464" y="256" width="8" height="8" fill="black"/>
  <rect x="480" y="256" width="8" height="8" fill="black"/>
  <rect x="448" y="264" width="8" height="8" fill="black"/>
  <rect x="464" y="264" width="8" height="8" fill="black"/>
  <rect x="480" y="264" width="8" height="8" fill="black"/>
  <rect x="456" y="272" width="8" height="8" fill="black"/>
  <rect x="472" y="272" width="8" height="8" fill="black"/>
  <rect x="520" y="224" width="8" height="8" fill="black"/>
  <rect x="552" y="224" width="8" height="8" fill="black"/>
  <rect x="520" y="232" width="8" height="8" fill="black"/>
  <rect x="552" y="232" width="8" height="8" fill="black"/>
  <rect x="528" y="240" width="8" height="8" fill="black"/>
  <rect x="544" y="240" width="8" height="8" fill="black"/>
  <rect x="536" y="248" width="8" height="8" fill="black"/>
  <rect x="528" y="256" width="8" height="8" fill="black"/>
  <rect x="544" y="256" width="8" height="8" fill="black"/>
  <rect x="520" y="264" width="8" height="8" fill="black"/>
  <rect x="552" y="264" width="8" height="8" fill="black"/>
  <rect x="520" y="272" width="8" height="8" fill="black"/>
  <rect x="552" y="272" width="8" height="8" fill="black"/>
  <rect x="592" y="240" width="8" height="8" fill="black"/>
  <rect x="624" y="240" width="8" height="8" fill="black"/>
  <rect x="600" y="248" width="8" height="8" fill="black"/>
  <rect x="616" y="248" width="8" height="8" fill="black"/>
  <rect x="608" y="256" width="8" height="8" fill="black"/>
  <rect x="600" y="264" width="8" height="8" fill="black"/>
  <rect x="616" y="264" width="8" height="8" fill="black"/>
  <rect x="592" y="272" width="8" height="8" fill="black"/>
  <rect x="624" y="272" width="8" height="8" fill="black"/>
</svg>
