<svg xmlns="http://www.w3.org/2000/svg" viewBox="0 0 736 88" role="img">
  <rect width="100%" height="100%" fill="white"/>
  <rect x="24" y="8" width="8" height="8" fill="black"/>
  <rect x="32" y="8" width="8" height="8" fill="black"/>
  <rect x="40" y="8" width="8" height="8" fill="black"/>
  <rect x="16" y="16" width="8" height="8" fill="black"/>
  <rect x="48" y="16" width="8" height="8" fill="black"/>
  <rect x="16" y="24" width="8" height="8" fill="black"/>
  <rect x="48" y="24" width="8" height="8" fill="black"/>
  <rect x="16" y="32" width="8" height="8" fill="black"/>
  <rect x="24" y="32" width="8" height="8" fill="black"/>
  <rect x="32" y="32" width="8" height="8" fill="black"/>
  <rect x="40" y="32" width="8" height="8" fill="black"/>
  <rect x="48" y="32" width="8" height="8" fill="black"/>
  <rect x="16" y="40" width="8" height="8" fill="black"/>
  <rect x="48" y="40" width="8" height="8" fill="black"/>
  <rect x="16" y="48" width="8" height="8" fill="black"/>
  <rect x="48" y="48" width="8" height="8" fill="black"/>
  <rect x="16" y="56" width="8" height="8" fill="black"/>
  <rect x="48" y="56" width="8" height="8" fill="black"/>
  <rect x="96" y="24" width="8" height="8" fill="black"/>
  <rect x="104" y="24" width="8" height="8" fill="black"/>
  <rect x="112" y="24" width="8" height="8" fill="black"/>
  <rect x="120" y="32" width="8" height="8" fill="black"/>
  <rect x="96" y="40" width="8" height="8" fill="black"/>
  <rect x="104" y="40" width="8" height="8" fill="black"/>
  <rect x="112" y="40" width="8" height="8" fill="black"/>
  <rect x="120" y="40" width="8" height="8" fill="black"/>
  <rect x="88" y="48" width="8" height="8" fill="black"/>
  <rect x="120" y="48" width="8" height="8" fill="black"/>
  <rect x="96" y="56" width="8" height="8" fill="black"/>
  <rect x="104" y="56" width="8" height="8" fill="black"/>
  <rect x="112" y="56" width="8" height="8" fill="black"/>
  <rect x="120" y="56" width="8" height="8" fill="black"/>
  <rect x="160" y="8" width="8" height="8" fill="black"/>
  <rect x="168" y="8" width="8" height="8" fill="black"/>
  <rect x="176" y="8" width="8" height="8" fill="black"/>
  <rect x="184" y="8" width="8" height="8" fill="black"/>
  <rect x="160" y="16" width="8" height="8" fill="black"/>
  <rect x="192" y="16" width="8" height="8" fill="black"/>
  <rect x="160" y="24" width="8" height="8" fill="black"/>
  <rect x="192" y="24" width="8" height="8" fill="black"/>
  <rect x="160" y="32" width="8" height="8" fill="black"/>
  <rect x="168" y="32" width="8" height="8" fill="black"/>
  <rect x="176" y="32" width="8" height="8" fill="black"/>
  <rect x="184" y="32" width="8" height="8" fill="black"/>
  <rect x="160" y="40" width="8" height="8" fill="black"/>
  <rect x="192" y="40" width="8" height="8" fill="black"/>
  <rect x="160" y="48" width="8" height="8" fill="black"/>
  <rect x="192" y="48" width="8" height="8" fill="black"/>
  <rect x="160" y="56" width="8" height="8" fill="black"/>
  <rect x="168" y="56" width="8" height="8" fill="black"/>
  <rect x="176" y="56" width="8" height="8" fill="black"/>
  <rect x="184" y="56" width="8" height="8" fill="black"/>
  <rect x="232" y="8" width="8" height="8" fill="black"/>
  <rect x="232" y="16" width="8" height="8" fill="black"/>
  <rect x="232" y="24" width="8" height="8" fill="black"/>
  <rect x="248" y="24" width="8" height="8" fill="black"/>
  <rect x="256" y="24" width="8" height="8" fill="black"/>
  <rect x="232" y="32" width="8" height="8" fill="black"/>
  <rect x="240" y="32" width="8" height="8" fill="black"/>
  <rect x="264" y="32" width="8" height="8" fill="black"/>
  <rect x="232" y="40" width="8" height="8" fill="black"/>
  <rect x="264" y="40" width="8" height="8" fill="black"/>
  <rect x="232" y="48" width="8" height="8" fill="black"/>
  <rect x="264" y="48" width="8" height="8" fill="black"/>
  <rect x="232" y="56" width="8" height="8" fill="black"/>
  <rect x="240" y="56" width="8" height="8" fill="black"/>
  <rect x="248" y="56" width="8" height="8" fill="black"/>
  <rect x="256" y="56" width="8" height="8" fill="black"/>
  <rect x="312" y="8" width="8" height="8" fill="black"/>
  <rect x="320" y="8" width="8" height="8" fill="black"/>
  <rect x="328" y="8" width="8" height="8" fill="black"/>
  <rect x="336" y="8" width="8" height="8" fill="black"/>
  <rect x="304" y="16" width="8" height="8" fill="black"/>
  <rect x="304" y="24" width="8" height="8" fill="black"/>
  <rect x="304" y="32" width="8" height="8" fill="black"/>
  <rect x="304" y="40" width="8" height="8" fill="black"/>
  <rect x="304" y="48" width="8" height="8" fill="black"/>
  <rect x="312" y="56" width="8" height="8" fill="black"/>
  <rect x="320" y="56" width="8" height="8" fill="black"/>
  <rect x="328" y="56" width="8" height="8" fill="black"/>
  <rect x="336" y="56" width="8" height="8" fill="black"/>
  <rect x="384" y="24" width="8" height="8" fill="black"/>
  <rect x="392" y="24" width="8" height="8" fill="black"/>
  <rect x="400" y="24" width="8" height="8" fill="black"/>
  <rect x="408" y="24" width="8" height="8" fill="black"/>
  <rect x="376" y="32" width="8" height="8" fill="black"/>
  <rect x="376" y="40" width="8" height="8" fill="black"/>
  <rect x="376" y="48" width="8" height="8" fill="black"/>
  <rect x="384" y="56" width="8" height="8" fill="black"/>
  <rect x="392" y="56" width="8" height="8" fill="black"/>
  <rect x="400" y="56" width="8" height="8" fill="black"/>
  <rect x="408" y="56" width="8" height="8" fill="black"/>
  <rect x="448" y="8" width="8" height="8" fill="black"/>
  <rect x="456" y="8" width="8" height="8" fill="black"/>
  <rect x="464" y="8" width="8" height="8" fill="black"/>
  <rect x="472" y="8" width="8" height="8" fill="black"/>
  <rect x="448" y="16" width="8" height="8" fill="black"/>
  <rect x="480" y="16" width="8" height="8" fill="black"/>
  <rect x="448" y="24" width="8" height="8" fill="black"/>
  <rect x="480" y="24" width="8" height="8" fill="black"/>
  <rect x="448" y="32" width="8" height="8" fill="black"/>
  <rect x="480" y="32" width="8" height="8" fill="black"/>
  <rect x="448" y="40" width="8" height="8" fill="black"/>
  <rect x="480" y="40" width="8" height="8" fill="black"/>
  <rect x="448" y="48" width="8" height="8" fill="black"/>
  <rect x="480" y="48" width="8" height="8" fill="black"/>
  <rect x="448" y="56" width="8" height="8" fill="black"/>
  <rect x="456" y="56" width="8" height="8" fill="black"/>
  <rect x="464" y="56" width="8" height="8" fill="black"/>
  <rect x="472" y="56" width="8" height="8" fill="black"/>
  <rect x="552" y="8" width="8" height="8" fill="black"/>
  <rect x="552" y="16" width="8" height="8" fill="black"/>
  <rect x="528" y="24" width="8" height="8" fill="black"/>
  <rect x="536" y="24" width="8" height="8" fill="black"/>
  <rect x="552" y="24" width="8" height="8" fill="black"/>
  <rect x="520" y="32" width="8" height="8" fill="black"/>
  <rect x="544" y="32" width="8" height="8" fill="black"/>
  <rect x="552" y="32" width="8" height="8" fill="black"/>
  <rect x="520" y="40" width="8" height="8" fill="black"/>
  <rect x="552" y="40" width="8" height="8" fill="black"/>
  <rect x="520" y="48" width="8" height="8" fill="black"/>
  <rect x="552" y="48" width="8" height="8" fill="black"/>
  <rect x="528" y="56" width="8" height="8" fill="black"/>
  <rect x="536" y="56" width="8" height="8" fill="black"/>
  <rect x="544" y="56" width="8" height="8" fill="black"/>
  <rect x="552" y="56" width="8" height="8" fill="black"/>
  <rect x="592" y="8" width="8" height="8" fill="black"/>
  <rect x="600" y="8" width="8" height="8" fill="black"/>
  <rect x="608" y="8" width="8" height="8" fill="black"/>
  <rect x="616" y="8" width="8" height="8" fill="black"/>
  <rect x="624" y="8" width="8" height="8" fill="black"/>
  <rect x="592" y="16" width="8" height="8" fill="black"/>
  <rect x="592" y="24" width="8" height="8" fill="black"/>
  <rect x="592" y="32" width="8" height="8" fill="black"/>
  <rect x="600" y="32" width="8" height="8" fill="black"/>
  <rect x="608" y="32" width="8" height="8" fill="black"/>
  <rect x="616" y="32" width="8" height="8" fill="black"/>
  <rect x="592" y="40" width="8" height="8" fill="black"/>
  <rect x="592" y="48" width="8" height="8" fill="black"/>
  <rect x="592" y="56" width="8" height="8" fill="black"/>
  <rect x="600" y="56" width="8" height="8" fill="black"/>
  <rect x="608" y="56" width="8" height="8" fill="black"/>
  <rect x="616" y="56" width="8" height="8" fill="black"/>
  <rect x="624" y="56" width="8" height="8" fill="black"/>
  <rect x="672" y="24" width="8" height="8" fill="black"/>
  <rect x="680" y="24" width="8" height="8" fill="black"/>
  <rect x="688" y="24" width="8" height="8" fill="black"/>
  <rect x="664" y="32" width="8" height="8" fill="black"/>
  <rect x="696" y="32" width="8" height="8" fill="black"/>
  <rect x="664" y="40" width="8" height="8" fill="black"/>
  <rect x="672" y="40" width="8" height="8" fill="black"/>
  <rect x="680" y="40" width="8" height="8" fill="black"/>
  <rect x="688" y="40" width="8" height="8" fill="black"/>
  <rect x="696" y="40" width="8" height="8" fill="black"/>
  <rect x="664" y="48" width="8" height="8" fill="black"/>
  <rect x="672" y="56" width="8" height="8" fill="black"/>
  <rect x="680" y="56" width="8" height="8" fill="black"/>
  <rect x="688" y="56" width="8" height="8" fill="black"/>
  <rect x="696" y="56" width="8" height="8" fill="black"/>
</svg>
